<?xml version="1.0" standalone="no"?>
<!DOCTYPE svg PUBLIC "-//W3C//DTD SVG 20010904//EN"
 "http://www.w3.org/TR/2001/REC-SVG-20010904/DTD/svg10.dtd">
<svg version="1.0" xmlns="http://www.w3.org/2000/svg"
 width="246.000000pt" height="246.000000pt" viewBox="0 0 246.000000 246.000000"
 preserveAspectRatio="xMidYMid meet">
<metadata>
Created by potrace 1.14, written by Peter Selinger 2001-2017
</metadata>
<g transform="translate(0.000000,246.000000) scale(0.100000,-0.100000)"
fill="#000000" stroke="none">
<path d="M983 1824 c-139 -40 -256 -75 -261 -78 -6 -3 -4 -30 4 -63 7 -31 12
-58 10 -60 -1 -2 -47 -13 -102 -25 -54 -12 -102 -24 -106 -27 -5 -5 208 -6
290 -2 8 1 12 17 12 45 l0 44 68 26 c187 71 317 116 333 116 9 0 72 -21 140
-46 68 -25 154 -57 192 -71 l67 -25 0 -44 0 -44 153 1 152 1 -103 23 c-56 12
-106 25 -109 29 -3 3 -1 31 6 62 7 30 11 57 9 59 -1 2 -106 33 -233 69 -126
36 -239 70 -250 75 -14 6 -91 -12 -272 -65z"/>
<path d="M1164 1702 c6 -9 153 -8 163 2 3 3 -33 6 -81 6 -48 0 -85 -4 -82 -8z"/>
<path d="M1080 1663 c0 -10 276 -10 286 0 4 4 -59 7 -139 7 -81 0 -147 -3
-147 -7z"/>
<path d="M1380 1660 c0 -5 7 -7 15 -4 8 4 15 8 15 10 0 2 -7 4 -15 4 -8 0 -15
-4 -15 -10z"/>
<path d="M968 1619 c-13 -4 100 -7 250 -8 149 -1 272 2 272 6 0 9 -488 11
-522 2z"/>
<path d="M550 1479 c0 -30 1 -31 40 -27 27 2 40 0 40 -9 0 -7 -18 -13 -47 -15
-32 -2 -47 -8 -49 -18 -1 -8 -5 -34 -9 -57 -7 -39 -6 -43 14 -43 16 0 21 6 21
24 0 30 10 37 62 42 36 4 39 2 37 -18 -5 -37 9 -48 60 -48 27 0 53 6 59 13 6
6 15 39 21 71 6 33 13 61 15 63 2 2 7 -28 11 -67 7 -74 21 -94 50 -70 10 9 15
9 15 1 0 -6 8 -11 19 -11 13 0 31 26 65 93 26 52 44 79 41 62 -3 -16 -8 -41
-10 -55 -3 -14 -8 -42 -11 -63 l-7 -38 84 3 c66 2 84 6 85 18 2 33 4 40 13 40
6 0 16 -12 23 -27 11 -23 21 -29 56 -31 36 -3 42 0 42 17 0 34 12 51 35 51 20
0 24 -5 22 -32 -1 -24 3 -33 16 -36 13 -3 17 3 18 25 l1 28 10 -28 c9 -27 13
-28 66 -25 51 3 57 6 62 28 l6 25 7 -27 c7 -26 11 -28 61 -28 47 0 54 3 64 25
7 14 12 37 12 50 0 27 15 34 23 11 3 -8 23 -17 44 -19 36 -3 36 -4 -8 -5 -47
-2 -59 -12 -59 -48 0 -12 13 -14 62 -12 62 3 62 3 69 36 10 48 18 50 12 3 l-6
-41 60 0 c59 0 60 0 59 28 -1 24 -6 28 -41 33 -27 4 -32 7 -14 8 41 2 47 49 9
64 -8 3 4 6 26 6 34 1 43 5 47 23 3 12 4 25 1 30 -8 13 -112 10 -117 -4 -4
-10 -6 -10 -6 0 -1 8 -20 12 -61 12 -55 0 -61 -2 -70 -25 -5 -14 -11 -25 -13
-25 -2 0 -2 11 1 25 3 20 0 25 -16 25 -15 0 -21 -9 -25 -37 -4 -21 -8 -47 -11
-58 -2 -11 -5 -26 -5 -32 -1 -7 -13 -13 -27 -13 -26 0 -26 1 -19 48 12 74 11
86 -7 90 -13 3 -18 -3 -18 -22 0 -14 -4 -28 -10 -31 -6 -3 -7 1 -4 10 11 27
-15 45 -65 45 -26 0 -52 -5 -59 -12 -9 -9 -12 -9 -12 0 0 7 -9 12 -20 12 -13
0 -20 -7 -20 -19 0 -35 -12 -51 -36 -51 -21 0 -24 4 -22 32 2 24 -2 33 -14 36
-13 2 -18 -3 -19 -20 l0 -23 -11 23 c-9 19 -19 22 -65 22 -36 0 -53 -4 -53
-12 0 -10 -2 -10 -8 0 -6 9 -33 12 -86 11 l-77 -1 -29 -57 c-22 -43 -29 -51
-31 -33 -1 12 -3 27 -4 32 -1 6 -3 21 -4 35 -1 18 -7 25 -22 25 -19 0 -20 -4
-16 -50 3 -27 1 -52 -4 -56 -5 -3 -9 10 -9 28 0 53 -10 78 -32 78 -12 0 -17
-4 -12 -12 6 -10 4 -10 -7 0 -7 6 -34 12 -59 12 -25 0 -52 -6 -59 -12 -11 -10
-14 -10 -18 0 -3 8 -26 12 -64 12 l-59 0 0 -31z m862 -26 c-3 -16 -7 -22 -10
-15 -4 13 4 42 11 42 2 0 2 -12 -1 -27z m415 -15 c-8 -33 -12 -38 -17 -22 -5
13 -20 21 -46 25 l-39 6 46 2 c31 1 49 6 53 16 11 30 14 14 3 -27z m-666 12
c30 5 59 0 59 -10 0 -5 -20 -10 -45 -10 -42 0 -44 -2 -50 -33 -6 -30 -9 -32
-41 -31 -38 2 -61 14 -27 14 19 0 33 17 33 41 0 5 -10 14 -22 19 -19 7 -16 9
20 9 26 1 42 6 42 14 0 9 2 9 9 -1 4 -8 14 -13 22 -12z m-395 -16 c-3 -9 -6
-27 -6 -40 0 -20 -5 -24 -31 -24 -29 0 -30 1 -24 33 10 44 13 47 42 47 19 0
24 -4 19 -16z m734 -1 c0 -42 -13 -63 -36 -63 -25 0 -29 14 -18 58 8 28 54 32
54 5z m-248 -74 c-8 -32 -9 -33 -16 -11 -5 14 -3 29 5 38 17 21 21 11 11 -27z
m145 19 c-3 -8 -6 -5 -6 6 -1 11 2 17 5 13 3 -3 4 -12 1 -19z m140 0 c-3 -8
-6 -5 -6 6 -1 11 2 17 5 13 3 -3 4 -12 1 -19z"/>
<path d="M288 1359 c-5 -4 -9 -22 -8 -40 4 -73 1 -89 -19 -89 -16 0 -19 -6
-17 -32 2 -22 8 -34 19 -36 17 -3 19 -14 20 -93 l0 -36 98 0 c83 0 99 3 100
16 0 9 1 37 1 64 l-1 47 173 0 c145 0 175 2 180 15 5 13 -19 15 -174 15 -99 0
-180 3 -180 8 0 4 79 7 175 7 153 -1 175 1 175 14 0 14 -21 16 -162 16 -90 0
-168 -4 -174 -7 -8 -5 -11 13 -10 58 1 36 -3 68 -8 72 -13 7 -176 8 -188 1z"/>
<path d="M2033 1362 l-73 -3 0 -64 0 -65 -175 3 c-156 2 -175 0 -175 -14 0
-15 20 -16 175 -15 169 1 175 0 174 -19 0 -11 -3 -14 -6 -7 -3 9 -48 12 -174
12 -144 0 -169 -2 -169 -15 0 -13 26 -15 175 -15 l175 0 0 -64 0 -64 98 1 97
2 3 63 c3 53 6 62 22 62 16 0 19 7 18 35 -1 27 -6 35 -20 35 -16 0 -18 9 -18
64 0 62 -1 64 -27 67 -16 2 -61 3 -100 1z"/>
<path d="M891 1246 c-5 -6 -11 -30 -15 -52 -5 -33 -3 -43 10 -48 19 -7 34 1
34 18 0 8 12 16 26 19 20 3 24 1 19 -11 -6 -15 10 -32 31 -32 6 0 14 18 18 40
5 30 10 38 22 33 8 -3 14 -15 13 -27 -3 -39 1 -47 18 -44 11 2 20 15 23 33 3
18 12 31 23 33 16 3 18 -2 15 -29 -2 -26 1 -34 15 -37 12 -3 20 4 24 18 5 20
6 20 19 2 12 -17 27 -19 178 -18 169 1 195 7 183 40 -10 24 -8 31 5 31 19 0
22 35 4 36 -9 1 -22 2 -28 3 -7 1 -23 -1 -35 -6 -12 -4 -24 -4 -27 0 -7 11
-77 5 -89 -7 -9 -9 -8 -17 1 -31 16 -26 15 -29 -5 -26 -10 2 -21 -2 -25 -8
-12 -17 -10 22 2 44 7 13 7 21 -1 26 -17 10 -89 11 -89 1 0 -5 -6 -4 -14 2
-11 10 -18 8 -34 -9 -15 -17 -21 -18 -25 -7 -6 16 -47 30 -47 15 0 -5 -5 -6
-12 -2 -16 10 -98 12 -98 2 0 -4 -6 -5 -12 -3 -29 10 -119 10 -127 1z m584
-25 c-3 -5 -1 -12 5 -16 15 -9 2 -25 -20 -25 -26 0 -30 23 -6 36 27 16 28 16
21 5z"/>
<path d="M895 1071 c-28 -30 -28 -30 -10 -58 66 -100 273 -257 339 -257 61 0
212 110 306 222 46 56 47 71 6 96 -14 9 -21 5 -39 -19 -65 -89 -166 -171 -245
-199 -36 -13 -39 -12 -104 28 -76 46 -120 86 -175 154 -20 26 -40 50 -43 55
-3 4 -19 -6 -35 -22z"/>
<path d="M1110 1059 l-65 -6 65 -2 c104 -5 262 -2 268 4 3 3 -33 5 -79 6 -46
0 -93 1 -104 2 -11 1 -49 -1 -85 -4z"/>
<path d="M1125 1009 c-36 -5 -34 -6 25 -10 69 -4 240 5 180 10 -66 6 -165 6
-205 0z"/>
</g>
</svg>
